<svg xmlns="http://www.w3.org/2000/svg" xmlns:xlink="http://www.w3.org/1999/xlink" version="1.1" x="0px" y="0px" viewBox="0 0 100 125" enable-background="new 0 0 100 100" xml:space="preserve"><g><path fill="#000000" d="M30.839,51.267V16.839c0-1.656-1.344-3-3-3s-3,1.344-3,3v34.428c-4.61,1.309-8,5.549-8,10.572   c0,5.025,3.39,9.264,8,10.574v9.426c0,1.658,1.344,3,3,3s3-1.342,3-3v-9.426c4.61-1.311,8-5.549,8-10.574   C38.839,56.815,35.449,52.575,30.839,51.267z"/><path fill="#000000" d="M80.839,61.839c0-5.023-3.39-9.264-8-10.572V16.839c0-1.656-1.344-3-3-3s-3,1.344-3,3v34.428   c-4.61,1.309-8,5.549-8,10.572c0,5.025,3.39,9.264,8,10.574v9.426c0,1.658,1.344,3,3,3s3-1.342,3-3v-9.426   C77.449,71.103,80.839,66.864,80.839,61.839z"/><path fill="#000000" d="M59.839,36.839c0-5.023-3.39-9.264-8-10.572v-9.428c0-1.656-1.344-3-3-3s-3,1.344-3,3v9.428   c-4.61,1.309-8,5.549-8,10.572c0,5.025,3.39,9.264,8,10.574v34.426c0,1.658,1.344,3,3,3s3-1.342,3-3V47.413   C56.449,46.103,59.839,41.864,59.839,36.839z"/></g><text x="0" y="115" fill="#000000" font-size="5px" font-weight="bold" font-family="'Helvetica Neue', Helvetica, Arial-Unicode, Arial, Sans-serif">Created by Mete Eraydın</text><text x="0" y="120" fill="#000000" font-size="5px" font-weight="bold" font-family="'Helvetica Neue', Helvetica, Arial-Unicode, Arial, Sans-serif">from the Noun Project</text></svg>